<?xml version="1.0" encoding="utf-8"?>
<!-- Generator: Adobe Illustrator 22.1.0, SVG Export Plug-In . SVG Version: 6.00 Build 0)  -->
<svg version="1.1" id="Layer_1" xmlns="http://www.w3.org/2000/svg" xmlns:xlink="http://www.w3.org/1999/xlink" x="0px" y="0px"
	 viewBox="0 0 24 24" style="enable-background:new 0 0 24 24;" xml:space="preserve">
<style type="text/css">
	.st0{fill:#BBBDBF;}
	.st1{fill:none;}
</style>
<path class="st0" d="M21,19.1H3V5h18V19.1z M21,3H3C1.9,3,1,3.9,1,5v14c0,1.1,0.9,2,2,2h18c1.1,0,2-0.9,2-2V5C23,3.9,22.1,3,21,3z"
	/>
<path class="st1" d="M21,19.1H3V5h18V19.1z M21,3H3C1.9,3,1,3.9,1,5v14c0,1.1,0.9,2,2,2h18c1.1,0,2-0.9,2-2V5C23,3.9,22.1,3,21,3z"
	/>
<path class="st1" d="M0,0h24v24H0V0z"/>
<polygon class="st0" points="12,7.5 7.8,11.8 10.5,11.8 10.5,16.5 13.5,16.5 13.5,11.8 16.2,11.8 "/>
</svg>
