<?xml version="1.0" encoding="utf-8"?>
<!-- Generator: Adobe Illustrator 22.1.0, SVG Export Plug-In . SVG Version: 6.00 Build 0)  -->
<svg version="1.1" id="Layer_1" xmlns="http://www.w3.org/2000/svg" xmlns:xlink="http://www.w3.org/1999/xlink" x="0px" y="0px"
	 viewBox="0 0 24 24" style="enable-background:new 0 0 24 24;" xml:space="preserve">
<style type="text/css">
	.st0{fill:none;}
	.st1{fill:#BBBDBF;}
</style>
<path class="st0" d="M0,0h24v24H0V0z"/>
<rect x="42.2" y="18.6" class="st0" width="4" height="2"/>
<path class="st1" d="M20,6.5h-4v-2c0-1.1-0.9-2-2-2h-4c-1.1,0-2,0.9-2,2v2H4c-1.1,0-2,0.9-2,2l0,11c0,1.1,0.9,2,2,2h16
	c1.1,0,2-0.9,2-2v-11C22,7.4,21.1,6.5,20,6.5z M10,4.5h4v2h-4V4.5z M15.3,14.3l-5.7,2.8v-1.2l4.5-2.2l-4.5-2.2v-1.2l5.7,2.8V14.3z"
	/>
</svg>
