<?xml version="1.0" encoding="utf-8"?>
<!-- Generator: Adobe Illustrator 22.1.0, SVG Export Plug-In . SVG Version: 6.00 Build 0)  -->
<svg version="1.1" id="Layer_1" xmlns="http://www.w3.org/2000/svg" xmlns:xlink="http://www.w3.org/1999/xlink" x="0px" y="0px"
	 viewBox="0 0 24 24" style="enable-background:new 0 0 24 24;" xml:space="preserve">
<style type="text/css">
	.st0{fill:none;}
	.st1{fill:#BBBDBF;}
</style>
<path class="st0" d="M0,0h24v24H0V0z"/>
<path class="st1" d="M8.5,7c1.7,0,3,1.3,3,3s-1.3,3-3,3s-3-1.3-3-3S6.8,7,8.5,7z"/>
<path class="st1" d="M14.5,19h-12v-1c0-2,4-3.1,6-3.1s6,1.1,6,3.1V19z"/>
<path class="st1" d="M18.4,15H20l1.5,2l-2,2c-1.3-1-2.3-2.4-2.7-4c-0.2-0.6-0.3-1.3-0.3-2c0-0.7,0.1-1.4,0.3-2c0.5-1.6,1.4-3,2.7-4
	l2,2L20,11h-1.6c-0.2,0.6-0.4,1.3-0.4,2S18.1,14.4,18.4,15z"/>
</svg>
