<?xml version="1.0" encoding="utf-8"?>
<!-- Generator: Adobe Illustrator 22.1.0, SVG Export Plug-In . SVG Version: 6.00 Build 0)  -->
<svg version="1.1" id="Layer_1" xmlns="http://www.w3.org/2000/svg" xmlns:xlink="http://www.w3.org/1999/xlink" x="0px" y="0px"
	 viewBox="0 0 24 24" style="enable-background:new 0 0 24 24;" xml:space="preserve">
<style type="text/css">
	.st0{fill:#BBBDBF;}
	.st1{fill:none;}
</style>
<path class="st0" d="M12,0C5.4,0,0,5.4,0,12s5.4,12,12,12s12-5.4,12-12S18.6,0,12,0z M13.6,18.8V21h-3v-2.2C8.7,18.4,7,17.2,6.9,15
	h2.2c0.1,1.2,0.9,2.1,3,2.1c2.2,0,2.7-1.1,2.7-1.8c0-0.9-0.5-1.8-3-2.4C9,12.2,7.1,11.1,7.1,8.8c0-1.9,1.6-3.2,3.5-3.6V3h3v2.2
	c2.1,0.5,3.1,2.1,3.2,3.8h-2.2c-0.1-1.3-0.7-2.1-2.5-2.1c-1.7,0-2.7,0.8-2.7,1.8c0,1,0.7,1.6,3,2.2c2.3,0.6,4.7,1.6,4.7,4.4
	C17.1,17.3,15.5,18.5,13.6,18.8z"/>
<path class="st1" d="M0,0h24v24H0V0z"/>
</svg>
