<?xml version="1.0" encoding="utf-8"?>
<!-- Generator: Adobe Illustrator 22.1.0, SVG Export Plug-In . SVG Version: 6.00 Build 0)  -->
<svg version="1.1" id="Capa_1" xmlns="http://www.w3.org/2000/svg" xmlns:xlink="http://www.w3.org/1999/xlink" x="0px" y="0px"
	 viewBox="0 0 493 122" style="enable-background:new 0 0 493 122;" xml:space="preserve">
<style type="text/css">
	.st0{fill:#00529B;}
</style>
<g>
	<g>
		<polygon class="st0" points="93.4,103.1 96.7,106.3 99.4,103.1 113.1,103.1 116.1,98.6 95.2,98.6 94.6,98 88.1,98 87.7,98.6 
			25.5,98.6 22.6,103.1 		"/>
		<path class="st0" d="M91.7,93.9h-8.6l-2.2-2.3H29.8l2.9-4.5h43.7l0.2-1h8.6l0.2,1h37.8l-3,4.5H90C90,91.7,90.2,92.8,91.7,93.9z"/>
		<polygon class="st0" points="80.2,80.3 127.9,80.3 130.9,75.9 80.2,75.9 80.8,74.8 65.7,74.8 65,75.9 40.3,75.9 37.4,80.3 
			69.7,80.3 71.7,82.3 81.8,82.3 		"/>
		<path class="st0" d="M85.9,68.5h49.8l3-4.5H88.9l-0.4-1H73.6l-0.6,1H48.1l-2.9,4.5h23.1c0,0,1.5,0.4,0.4,1.9h15.5L85.9,68.5z"/>
		<path class="st0" d="M94.1,57.1h49l3-4.5H98.3L98,51.7H81.5l-0.6,0.9H55.5l-2.9,4.5h23.7c0,0,1.2,0.6,0.4,1.8h16.7
			C93.3,58.8,93.3,58.1,94.1,57.1z"/>
		<path class="st0" d="M101.5,47.5H84.5c0.9-1.6-1.3-1.8-1.3-1.8H59.8l2.9-4.5h26l0.7-1h17l0.7,1h46.1l-3,4.5h-47.8
			C102.5,45.7,101.8,46.5,101.5,47.5z"/>
		<path class="st0" d="M113.4,34.4h44.6l3-4.5h-43.8l-1.1-1.9H97.8l-1.4,1.9h-26l-2.9,4.5h23.1c0,0,2.8,0,1.5,1.9h20.6
			C112.7,36.3,112.7,35.6,113.4,34.4z"/>
		<path class="st0" d="M117.8,18.6h50.4l-3,4.5h-43c-1.2,0-2,1.9-2,1.9H99.8c1-1.8-1.2-1.9-1.2-1.9H74.7l2.9-4.5h37.6l1.6-1.5
			l3.8-5.1h-0.9l3.4-4.4h2.6l-3.1,4.4h-0.8l-4.1,5.3L117.8,18.6z"/>
	</g>
	<g>
		<path class="st0" d="M198.1,18.7l-11.8,17.8h-9.6l-8.1,12.1h10l-28.7,43.5c0,0-2.2,3.5-2.2,8.4c0,4.9,6.1,5.7,6.1,5.7h21.8
			l6.9-12.6h-10.8c0,0-4.2-0.5-2.2-4c2-3.5,27-41.1,27-41.1h12.7l6.9-12.1h-11.6l11.7-17.8H198.1z"/>
		<polygon class="st0" points="266.2,106.3 321.6,18.7 303.1,18.7 247.6,106.3 		"/>
		<polygon class="st0" points="422.1,106.3 477.5,18.7 459,18.7 403.5,106.3 		"/>
		<path class="st0" d="M257.7,77.9h-44.6c0,0-4.6,5.6-5.1,10.4c0,0,0,4,4.7,4c4.7,0,34.3,0,34.3,0l-9,14.1h-27.9
			c0,0-21.2,0-21.2-12.6c0,0-0.2-9.4,15.4-31.3c15.6-21.9,26.2-22.8,44.1-22.8c17.9,0,22.7,5.7,22.2,10.5
			C269.9,55.6,269.3,58.4,257.7,77.9z M220.7,65.6h29.4c0,0,3.3-5.7,4.3-10.4c1-4.7-4.4-5.9-10.4-5.9
			C237.9,49.3,228.8,49.9,220.7,65.6z"/>
		<path class="st0" d="M411.9,77.9h-44.6c0,0-4.6,5.6-5.1,10.4c0,0,0,4,4.7,4s34.3,0,34.3,0l-9,14.1h-27.9c0,0-21.2,0-21.2-12.6
			c0,0-0.2-9.4,15.4-31.3c15.6-21.9,26.2-22.8,44.1-22.8c17.9,0,22.7,5.7,22.2,10.5C424.2,55.6,423.6,58.4,411.9,77.9z M374.9,65.6
			h29.4c0,0,3.3-5.7,4.3-10.4c1-4.7-4.4-5.9-10.4-5.9C392.2,49.3,383,49.9,374.9,65.6z"/>
		<path class="st0" d="M303.5,88.2c0,0,0,4,4.7,4c4.7,0,29.9,0,29.9,0l-9,14.1h-23.5c0,0-22.9,0.7-21.2-12.6c0,0-0.2-9.4,15.4-31.3
			c0,0,14.1-22.8,44.5-22.8c30.4,0,20.1,0,20.1,0l-9.1,14c0,0-14.7,0-16.2,0c-1.5,0-13.2,1.2-23.8,13.1
			C304.7,78.6,303.9,84.3,303.5,88.2z"/>
		<g>
			<path class="st0" d="M446.3,106.3l2.4-3.8h0.9l-0.7,3.2l3.3-3.2h0.9l-2.4,3.8h-0.6l1.4-2.2c0-0.1,0.1-0.2,0.2-0.4
				c0.1-0.2,0.2-0.4,0.4-0.6l-3.3,3.2h-0.6l0.7-3.2l-0.1,0.1c-0.1,0.1-0.1,0.2-0.3,0.4c-0.1,0.2-0.2,0.3-0.3,0.4l-1.4,2.2H446.3z"/>
			<path class="st0" d="M451.7,106.3l0.4-0.6h0.6l-0.4,0.6H451.7z"/>
			<path class="st0" d="M457.1,103h1.5c0.2,0,0.4,0,0.4,0.1c0.2,0.1,0.2,0.3,0,0.5c-0.2,0.2-0.3,0.4-0.6,0.5
				c-0.2,0.1-0.5,0.1-0.8,0.1h-1.4L457.1,103z M455,106.3l1-1.6h1.4c0.2,0,0.4,0,0.5,0.1c0.1,0.1,0.2,0.2,0,0.5l-0.4,0.6
				c-0.1,0.1-0.1,0.2-0.2,0.3c0,0.1,0,0.1,0,0.1h0.7l0.1-0.1c-0.1,0-0.1-0.1,0-0.2c0-0.1,0.1-0.2,0.2-0.3l0.3-0.5
				c0.1-0.2,0.2-0.4,0.2-0.5c0-0.1-0.1-0.2-0.2-0.2c0.3-0.1,0.5-0.2,0.7-0.3c0.2-0.1,0.4-0.3,0.5-0.6c0.3-0.4,0.3-0.7-0.1-0.9
				c-0.2-0.1-0.4-0.1-0.8-0.1h-2.1l-2.4,3.8H455z"/>
			<path class="st0" d="M459,106.3l0.4-0.6h0.6l-0.4,0.6H459z"/>
		</g>
	</g>
</g>
</svg>
