<?xml version="1.0" encoding="utf-8"?>
<!-- Generator: Adobe Illustrator 22.1.0, SVG Export Plug-In . SVG Version: 6.00 Build 0)  -->
<svg version="1.1" id="Layer_1" xmlns="http://www.w3.org/2000/svg" xmlns:xlink="http://www.w3.org/1999/xlink" x="0px" y="0px"
	 viewBox="0 0 24 24" style="enable-background:new 0 0 24 24;" xml:space="preserve">
<style type="text/css">
	.st0{fill:none;}
	.st1{fill:#BBBDBF;}
</style>
<path class="st0" d="M0,0h24v24H0V0z"/>
<path class="st1" d="M16.5,13.9c1.4,0,2.5-1.1,2.5-2.5s-1.1-2.5-2.5-2.5S14,10.1,14,11.4S15.1,13.9,16.5,13.9z M13.8,8.1
	c1.4,0,2.5-1.1,2.5-2.5s-1.1-2.5-2.5-2.5s-2.5,1.1-2.5,2.5S12.4,8.1,13.8,8.1z M9,12.9c1.7,0,3-1.3,3-3s-1.3-3-3-3s-3,1.3-3,3
	S7.3,12.9,9,12.9z M16.5,15.9c-1.8,0-5.5,0.9-5.5,2.8v2.3h11v-2.3C22,16.9,18.3,15.9,16.5,15.9z M9,14.9c-2.3,0-7,1.2-7,3.5v2.5h7
	v-2.3c0-0.9,0.3-2.3,2.4-3.5C10.5,15,9.7,14.9,9,14.9z"/>
</svg>
